<svg width="52" height="52" viewBox="0 0 52 52" fill="none" xmlns="http://www.w3.org/2000/svg">
<g clip-path="url(#clip0_418_2179)">
<path fill-rule="evenodd" clip-rule="evenodd" d="M1.35716 2.70764C1.18539 2.70599 1.015 2.7384 0.855836 2.80299C0.696669 2.86758 0.551882 2.96308 0.429841 3.08396C0.307799 3.20484 0.210925 3.34871 0.144815 3.50725C0.0787044 3.66579 0.0446698 3.83587 0.0446777 4.00764V40.5584C0.0447193 40.8062 0.115566 41.0488 0.248874 41.2577C0.382182 41.4665 0.572398 41.6329 0.797118 41.7373L17.264 49.3865C17.4356 49.4663 17.6227 49.5077 17.812 49.5077C18.0014 49.5077 18.1884 49.4663 18.3601 49.3865L34.2789 41.9921L50.1976 49.3865C51.0593 49.7869 52.0452 49.1577 52.0452 48.2076V11.6574C52.0453 11.4095 51.9745 11.1668 51.8411 10.9578C51.7078 10.7489 51.5176 10.5824 51.2928 10.478L34.8259 2.8288C34.6542 2.74898 34.4672 2.70762 34.2778 2.70762C34.0885 2.70762 33.9014 2.74898 33.7298 2.8288L17.811 10.2232L1.89224 2.8288C1.72437 2.75074 1.54228 2.70943 1.35716 2.70764ZM34.8587 5.71064L37.2944 6.84216C37.2138 6.84632 37.2127 6.9394 37.1748 6.98568C37.31 7.33408 37.4056 7.1396 37.6079 7.1682C37.675 7.11672 37.6126 7.04236 37.6142 6.99036L49.4442 12.4862V46.1703L46.3788 44.7465C46.4464 44.5011 46.5379 44.3617 46.592 44.1724C46.6018 44.0586 46.5296 43.9665 46.501 43.8719C46.3689 43.7694 46.3476 43.6972 46.1931 43.5178C45.5561 43.1434 45.3533 42.705 44.9722 42.1444C44.7605 41.9869 44.6846 41.8584 44.4979 41.7004C44.4583 41.6214 44.401 41.5527 44.3305 41.4996C43.94 41.3374 43.7169 41.0654 43.4408 40.7956C43.4345 40.7852 43.4345 40.7841 43.4345 40.7883C43.1652 40.1778 42.5692 39.9303 42.1278 39.5574C42.1938 39.1882 42.0066 39.2855 41.8371 39.1555C41.6639 39.3598 41.6135 39.2309 41.3961 39.1347C41.2011 39.144 41.0628 39.1087 40.978 39.1066C40.6213 38.8955 40.5022 38.7634 40.276 38.5195C40.2469 38.4769 40.2266 38.4327 40.144 38.4108C39.8351 38.78 39.8091 38.5882 39.4149 38.2689C39.4617 38.273 39.4399 38.2777 39.4222 38.2574C39.3624 38.1108 39.2152 37.9922 39.1445 37.9038C38.6001 37.961 38.5533 37.9413 38.2267 37.4837C38.179 37.361 38.101 37.2524 38 37.168C37.5689 37.0672 37.3204 36.9985 36.9928 36.6116C36.4572 36.8924 36.1379 36.5929 35.6917 36.347C35.3969 36.2674 35.2736 36.0984 35.1197 35.8883C35.0909 35.8799 35.0605 35.8792 35.0313 35.8862L34.9575 22.9705C34.9679 22.9663 34.9798 22.9689 34.9897 22.9632C35.2456 22.6595 35.0724 22.3574 34.9523 22.0594L34.9492 21.594C34.9528 21.592 34.9481 21.5935 34.9596 21.5888C35.4125 21.4464 35.6699 21.2259 36.1212 21.3138C36.2336 21.58 36.3433 21.8582 36.427 22.1588C36.4083 22.4552 36.5846 22.4432 36.7468 22.5722C37.1243 22.8842 37.064 23.4364 37.169 23.8701C37.3822 24.2258 37.1867 24.0594 36.9886 23.8508C36.4598 23.7791 36.7385 24.2398 36.9782 24.5996C37.1238 24.7078 37.1446 24.8633 37.2221 25.0104C37.5928 25.8357 37.9402 26.3973 38.6349 26.8824C39.0759 27.3764 39.1601 27.1996 39.4461 27.0936C39.3088 26.793 39.1123 26.6458 38.8585 26.4378C38.636 26.313 38.5013 26.222 38.4326 26.1518C38.351 26.0416 38.5408 26.078 38.5912 26.0437C38.6131 26.1269 38.638 26.209 38.7171 26.2569V26.2579C38.7696 26.2896 38.8793 26.3588 38.9563 26.4092C39.1684 26.5481 39.261 26.6292 39.3983 26.6469C39.833 26.1908 39.5782 26.6999 39.6994 26.7353C39.7087 26.7561 39.7306 26.859 39.7306 26.9027C39.9131 27.3198 40.0701 27.1643 40.3743 27.1939C40.3996 27.172 40.4198 27.1449 40.4337 27.1145C40.4476 27.0841 40.4549 27.0511 40.4549 27.0176V27.0166C40.456 26.9345 40.4393 26.853 40.406 26.7779C40.43 26.755 40.431 26.7717 40.4934 26.7556C40.8917 26.688 40.5126 26.547 40.86 26.9313C41.0789 27.0795 40.7638 26.9521 40.6988 26.9667H40.6957C40.6616 26.9729 40.6303 26.9897 40.6062 27.0145C40.5865 27.34 40.7347 27.3588 41.0207 27.5111C41.4169 27.5683 41.3732 27.6567 41.6208 27.8491C41.6447 27.8621 41.7846 27.9687 41.901 28.0769C42.0175 28.185 42.135 28.3156 42.1501 28.339C42.1912 28.3816 42.1543 28.3686 42.1569 28.3868H42.1558C42.1277 28.4196 42.1038 28.4557 42.0846 28.4944C42.0888 28.7555 42.2656 28.8033 42.4767 28.9208C42.5328 29.0228 42.6207 29.0872 42.7107 29.1361C42.6667 29.1718 42.6324 29.2179 42.6108 29.2703C42.5874 29.3337 42.5744 29.4044 42.5744 29.4783C42.5733 29.5844 42.5628 29.6902 42.5432 29.7944C42.493 29.7411 42.438 29.6797 42.3784 29.6104C42.2011 29.3738 42.2255 29.2687 42.2708 29.0092C42.1023 28.807 41.8964 28.7097 41.6707 28.5574C41.3862 28.4274 41.3691 28.496 41.1158 28.6853C40.6348 28.5251 40.3982 28.6421 40.0992 28.8122C40.055 28.9874 39.8538 28.8434 39.7488 28.8558C39.4602 28.7669 39.2111 28.873 39.0468 28.8907C39.0026 28.9916 39 29.1039 38.9901 29.303C39.0052 29.7955 39.1497 30.2172 39.2116 30.6738C39.17 30.9587 39.3026 31.1158 39.4186 31.3149C39.845 31.5952 40.4419 31.6264 40.9026 31.6337C41.251 31.7028 41.4434 31.8999 41.6483 32.1292C41.8272 32.5057 42.0799 32.7678 42.3347 33.0382C42.499 33.4994 42.7637 33.6809 43.135 33.9035C43.2078 33.93 43.1298 33.9492 43.1298 33.9524C42.913 34.1333 43.0107 34.2519 43.0658 34.4958C43.2057 34.8837 43.2671 34.8473 43.6222 34.8156C43.8141 34.5836 43.7283 34.4505 43.6898 34.2238C43.0814 34.0423 43.7335 34.008 43.901 33.9992C43.9977 33.7974 44.0736 33.5988 44.174 33.4001C44.3606 33.0933 44.4028 32.9384 44.3996 32.5541C44.371 31.5037 43.5718 30.9925 43.3856 30.083C43.366 30.0174 43.342 29.9531 43.3139 29.8906C43.1974 29.7705 43.1667 29.5984 43.1012 29.4564C43.0892 29.3249 43.0404 29.2365 43.0159 29.1496C43.0346 29.1382 43.0549 29.134 43.07 29.1184C43.2302 29.3353 43.4148 29.5386 43.6092 29.7445C43.9415 30.0711 43.9249 29.7263 44.0502 29.6806C43.9722 29.5121 43.8609 29.3644 43.7668 29.2204C43.8968 29.2859 44.031 29.3264 44.1495 29.2999C44.2795 29.2198 44.2353 29.3847 44.2795 29.4289C44.5463 29.8511 44.8526 30.0503 45.084 30.4138C45.2004 30.5068 45.2888 30.3774 45.3684 30.3633C45.1932 29.8329 44.8328 29.4549 44.3315 29.1689C44.4449 28.963 44.2572 28.8688 44.1953 28.7435C44.0289 28.8049 43.9223 28.7856 43.8126 28.7607C44.1313 28.7586 43.9145 28.6016 43.9119 28.405C43.7767 28.2984 43.7164 28.5246 43.6659 28.5558C43.6659 28.6489 43.7054 28.7118 43.7855 28.7565C43.6748 28.7539 43.5884 28.6988 43.4985 28.6723C43.1584 28.4128 43.5396 28.5449 43.5817 28.4123C43.7044 28.1284 43.4278 28.1913 43.3378 28.0992C43.1152 28.4991 43.239 28.3525 42.7622 27.8699L42.2536 27.4321C41.9099 27.6952 42.0529 27.3458 41.8979 27.2646C41.5396 26.9001 41.5017 27.0447 41.2687 26.9932C41.2505 27.1066 41.1221 27.0473 41.0826 27.0613C41.1195 27.0036 41.1881 26.9719 41.2266 26.9396C41.3914 26.8804 41.2146 26.7134 41.2084 26.6001V26.599C41.1897 26.542 41.164 26.4875 41.132 26.4368C40.8148 26.3318 40.4445 26.1456 40.1013 25.9927C39.9193 26.0385 39.9417 25.8149 39.8616 25.726C39.8975 25.7 39.988 25.6792 40.014 25.6698L40.2859 25.6802C40.3249 25.6672 40.6213 25.9251 40.7435 26.0078C40.8943 26.038 40.9474 25.9106 40.9474 25.805L40.8902 25.3235C40.8829 25.1035 40.626 25.1872 40.5542 25.1498C40.5568 25.0869 40.4835 24.9564 40.482 24.9522C40.7212 24.8071 40.6182 24.7634 40.5964 24.5071C40.5514 24.4406 40.494 24.3834 40.4274 24.3386C40.2604 24.2772 40.4378 24.2206 40.4435 24.1457C40.4981 23.8768 40.3275 23.7723 40.2183 23.6075C40.1247 23.3631 39.9302 23.6506 39.8819 23.6579C39.885 24.4161 39.9978 24.3428 39.494 24.7884C39.4711 25.0406 39.2371 25.0167 39.1612 25.0718C38.974 25.2507 38.8627 25.169 38.584 25.169C38.3541 25.4238 38.4098 25.3812 38.508 25.7956C38.3656 25.572 38.1648 25.3245 38.0073 25.1316C38.0381 25.1215 38.065 25.1021 38.0842 25.076C38.1394 24.8924 38.0614 24.6984 38.0234 24.5112C37.9412 24.2289 37.7878 24.0469 37.6365 23.8326C37.4904 23.4047 37.7535 23.7962 37.8466 23.9158C37.831 24.0375 37.9719 24.1706 38.0114 24.2471C38.2064 24.2353 38.3998 24.2043 38.5886 24.1545C38.7826 24.0895 38.7202 23.8748 38.755 23.7541C38.4462 23.0381 38.7862 22.9315 39.4097 22.9034C39.5148 22.9055 39.6058 22.9008 39.6869 22.8748C39.9677 22.919 39.8689 22.9913 39.9074 23.271C39.9521 23.516 40.1674 23.283 40.2313 23.2866C40.4086 23.0157 40.2937 22.7999 40.2121 22.5753L40.1965 22.4609C40.4627 22.0995 40.3556 21.7355 40.2282 21.3829C40.1862 21.2898 40.1497 21.1943 40.119 21.0969C40.3457 20.9929 40.457 21.0948 40.6161 21.1141C40.6062 21.3257 40.6182 21.5342 40.6244 21.761L40.9505 21.8036C41.0493 21.8161 41.1366 21.8306 41.2235 21.7672C41.4143 21.5192 41.2812 21.2472 41.2126 21.0023V21.0012L41.1554 20.8884L41.1647 20.8853C41.2202 20.8655 41.2682 20.8385 41.3088 20.8042C41.5209 20.5878 41.418 20.6045 41.8132 20.7433C41.9463 20.7251 42.068 20.6497 42.1907 20.5358C42.6784 19.9779 42.629 19.9285 42.5672 20.6903C42.4693 20.8824 42.3972 21.0866 42.3529 21.2976C42.3789 21.9856 42.2786 21.4276 42.0726 21.6278C41.8672 21.8644 41.5818 21.724 41.3098 21.7516C41.0566 21.8078 41.1096 22.0074 41.0347 22.1307C41.1455 22.2336 41.1819 22.3907 41.249 22.5815C41.6374 22.4411 42.0638 22.4916 42.5521 22.5347C42.7382 22.5118 42.7523 22.3038 42.8204 22.2004C42.8532 22.0022 42.9078 21.5155 42.9104 21.4864C43.1693 21.45 43.3706 21.3626 43.5484 21.2836C43.617 21.268 43.6628 21.2243 43.7096 21.1806C43.7434 21.1999 43.7772 21.2207 43.8094 21.2233C44.1058 21.308 43.9571 20.9373 43.9779 20.8967C43.9536 20.8735 43.924 20.8566 43.8916 20.8474C43.8593 20.8381 43.8252 20.8369 43.7923 20.8437C43.2489 21.0054 43.3035 20.853 43.0029 20.6326C42.7731 20.2925 43.2016 20.2727 43.2598 20.1646C43.2265 19.7252 43.1194 19.2234 43.0762 18.8417C42.9244 18.4787 42.4663 18.4012 42.1751 18.1797C42.4476 18.019 42.6587 17.8693 42.9098 17.6909C43.1698 17.8001 43.4694 17.9374 43.7808 18.058C43.7819 18.1189 43.8053 18.1932 43.8536 18.2406C44.0252 18.3799 44.2785 18.408 44.4688 18.461C44.4983 18.4528 44.5256 18.438 44.5485 18.4178C44.5715 18.3975 44.5896 18.3723 44.6014 18.344C44.4782 18.0612 44.6617 18.1345 44.7876 17.927C44.9004 17.9124 44.8656 18.0216 44.8864 18.0456C45.0595 18.3981 44.8557 18.3628 44.773 18.5687C44.4194 18.836 44.4808 18.9186 44.356 19.239C44.3508 19.4303 44.3716 19.682 44.4168 19.9711C44.4787 20.385 44.4433 20.1734 44.3102 20.5275C44.383 20.7626 44.5702 20.5988 44.7033 20.6144C44.8661 20.3856 45.0179 20.3668 45.1906 20.2374C45.188 20.0288 45.3138 20.0944 45.4048 19.9883C45.4318 19.8193 45.5327 19.7387 45.6008 19.6014C45.6518 19.461 45.5941 19.3227 45.5858 19.1932C46.0824 18.7928 45.8785 19.0117 46.2358 19.1142C46.5852 19.2078 46.9794 18.9862 47.3184 18.9972C47.4406 19.2208 47.6013 18.9686 47.6808 18.9608C47.7328 18.836 47.7016 18.7205 47.6554 18.5448C47.4364 18.2796 47.8488 18.3056 47.8597 18.2926C48.0927 18.4402 48.1696 18.7044 48.349 18.929C48.6106 18.979 48.4307 19.0694 48.5066 19.1994C48.5555 19.3513 48.6647 19.4137 48.7536 19.527C49.0297 19.8099 48.9725 19.3814 49.038 19.3372C49.0505 19.0689 48.868 19.0814 48.7219 18.9686C48.789 18.7606 48.8909 18.7283 49.0053 18.5463C49.0001 18.1033 48.6974 17.8412 48.3901 17.5469C47.9034 16.7565 47.3574 16.1366 46.6289 15.6499C45.3226 15.3748 45.4703 14.6406 44.5598 14.1939C44.1048 13.9381 43.9753 13.5164 43.6722 13.1695C42.9026 12.8835 42.7492 11.1951 43.4522 12.1243C43.8334 12.4649 43.8396 12.3016 44.059 12.0718C43.9431 11.9024 43.8149 11.7418 43.6753 11.5913C43.591 11.5138 43.4984 11.4458 43.3992 11.3885C43.0622 11.049 42.7148 10.7162 42.3285 10.5035C41.9057 10.4754 41.9681 10.5643 41.771 10.7697C41.8958 11.1862 42.1725 11.5367 42.3675 11.7957C42.343 12.182 42.2708 12.5102 42.1938 12.8133C41.4398 12.2866 41.2604 12.1711 40.9697 11.2226C40.8761 11.167 40.8059 11.0796 40.7269 11.0105C40.3629 10.673 40.4201 10.8664 40.2204 11.0776C39.9032 11.0245 40.054 10.8987 39.964 10.7994C39.7976 10.5232 39.534 10.438 39.2958 10.321C39.2527 10.3168 39.2579 10.3121 39.2646 10.3189C38.8211 9.86388 39.1721 9.80044 39.3166 9.31112C39.2797 8.87536 39.0379 8.48276 38.6765 8.29556C38.5257 8.21808 38.4155 8.02516 38.3312 7.9248V7.92376C38.207 7.32056 37.9334 7.23008 37.4883 7.5296C37.3864 7.75684 37.2788 7.7792 37.1389 7.91284C37.0468 7.89412 37 7.8416 36.9278 7.80364C36.5118 7.50724 35.997 7.5998 35.5362 7.67364C35.2534 8.1328 35.4645 8.22224 34.8717 8.06L34.8587 5.71064ZM33.2997 5.89472L33.3018 6.15992C32.7173 6.6976 32.0829 7.32264 31.7044 7.88424C31.356 8.47496 31.2577 9.15616 31.0897 9.685C31.0663 9.81396 31.0164 9.9216 30.9701 10.0558C31.0315 10.3069 31.2717 10.3917 31.4251 10.5602C31.7803 10.4458 31.8224 10.5269 32.0788 10.6538C31.8978 10.711 31.7522 10.8794 31.6316 10.9912L31.63 10.9892C31.3752 10.8722 31.3456 11.01 31.1589 11.1764L31.1381 11.2065C31.1422 11.063 30.9748 11.0583 30.9093 10.9985H30.9077C30.8646 10.9875 30.819 10.9906 30.7777 11.0074C30.4569 11.311 30.5526 11.4026 30.7039 11.6958C30.6711 11.7406 30.6384 11.7842 30.6103 11.8258C30.4002 11.4946 30.1516 11.7 29.9156 11.8102C29.9447 11.9959 29.954 12.0921 30.0133 12.3074C30.1485 12.4181 29.9754 12.5039 29.9676 12.546C29.9676 12.5289 29.9884 12.5112 29.9868 12.494C29.9776 12.4049 29.9402 12.3211 29.88 12.2547C29.8199 12.1883 29.7402 12.1428 29.6524 12.1248C29.542 12.0956 29.4342 12.0574 29.33 12.0104C29.044 12.0094 28.9328 11.9101 28.7144 11.8472C28.6442 11.9101 28.6431 11.7796 28.588 11.7276C28.4767 11.6028 28.2854 11.6496 28.1741 11.6288C27.9281 11.7172 27.8002 11.8206 27.6062 11.9397C27.5095 12.2278 27.1674 12.3984 26.9604 12.6812C26.3702 13.5824 26.197 14.314 25.7914 15.1398C25.6219 15.4653 25.3853 15.7929 25.2023 16.0794C24.9241 16.5313 25.0634 17.0622 25.2293 17.4767C25.2656 17.5101 25.3114 17.5312 25.3604 17.537C25.5632 17.3711 25.4597 17.9015 25.5127 18.1106C25.5444 18.239 25.3926 18.2837 25.3505 18.3446C24.896 18.9405 24.9137 19.0299 24.4171 18.3066C24.506 17.8901 24.3016 17.8048 24.1124 17.6306C23.7265 17.8126 23.6979 18.149 23.648 18.5047C23.8128 18.6784 23.5544 18.6883 23.504 18.7881C23.3636 18.8708 23.3584 19.0388 23.3012 19.1485C23.0843 19.2681 23.1519 19.4241 23.1394 19.6165C23.168 19.6851 23.1067 19.708 23.0822 19.774C22.9928 19.9456 23.2013 20.0179 23.2408 20.099C23.4228 20.1053 23.558 19.9363 23.6584 19.8656C23.7416 19.798 23.7499 19.7304 23.7988 19.6654C23.855 19.7475 23.7572 19.798 23.7104 19.9451C23.6766 19.9857 23.6974 20.0335 23.6912 20.0762C23.9501 20.1906 23.7473 20.2306 23.8238 20.4474C23.8685 20.6248 24.0552 20.5187 24.1389 20.5442C24.2699 20.6404 24.2278 20.8218 24.2496 20.9726L23.909 21.1068C23.6906 21.165 23.5102 21.3179 23.3506 21.424C23.2492 21.5582 23.2455 21.7355 23.2492 22.048C23.2533 22.4156 23.2434 22.5815 23.2824 22.7115C23.2908 22.9299 23.5289 22.7864 23.6038 22.8088C23.4031 23.2253 23.181 23.5768 23.064 24.0391C22.9143 24.4239 22.7541 24.2393 22.3849 24.4431C22.308 24.6126 22.3267 24.7411 22.3553 24.8654C22.4608 24.907 22.5108 24.8513 22.6075 24.8383C22.3496 25.1732 22.3007 25.5642 22.2965 25.9392C22.36 26.1867 22.3407 26.3344 22.2175 26.5465C22.1855 26.5941 22.1638 26.6477 22.1535 26.7041C22.1469 26.7426 22.1537 26.7822 22.1728 26.8164C22.1873 26.8424 22.2118 26.8606 22.2367 26.8746L22.2346 26.8663C22.2336 26.8653 22.2383 26.8845 22.2814 26.8939C22.2658 26.8892 22.2508 26.8828 22.2367 26.8746C22.2385 26.8788 22.2395 26.8838 22.2398 26.8897C22.2398 26.9859 22.2856 27.0364 22.3334 27.0899C22.752 27.494 23.0989 27.7025 23.6709 27.6921C23.7281 27.6609 23.933 27.5538 24.1228 27.4555C24.3256 27.3499 24.5788 27.1783 24.7187 27.0483C24.8705 26.9069 24.9839 26.8284 25.0447 26.8055C25.1435 26.7899 25.2402 26.8928 25.3172 26.9272C25.402 26.9303 25.4659 26.8928 25.5335 26.8481C25.6354 26.7478 25.5788 26.8882 25.5996 26.9058L25.5606 27.1487C25.3734 27.3296 25.585 27.3848 25.6011 27.546C25.6453 27.5995 25.7015 27.6531 25.7649 27.6999C25.9407 27.8314 26.0358 27.9932 26.0613 28.1949C26.0717 28.2781 26.0962 28.3873 26.1222 28.4658C26.1299 28.5198 26.1185 28.5748 26.0899 28.6213C25.9859 28.8018 25.9152 29.0519 25.8809 29.2724C25.8633 29.3708 25.8566 29.4709 25.8611 29.5708C25.8382 29.7149 25.9979 29.7825 26.0301 29.8319C26.0499 29.8579 26.0759 29.9031 26.1019 29.9608C26.1539 30.0768 26.2054 30.2448 26.2412 30.434C26.2631 30.5495 26.2932 30.6613 26.3234 30.7523C26.391 30.9358 26.509 31.0747 26.6141 31.2255C26.6749 31.4158 26.7337 31.6155 26.7763 31.7767C26.8574 31.8547 26.9895 31.8817 27.1039 31.8318C27.2714 31.7585 27.5085 31.6134 27.729 31.4621C28.1892 31.2083 28.4169 30.7601 28.6348 30.3467C28.796 29.9442 28.9426 29.5558 29.159 29.2094C29.2489 29.0118 29.278 28.7643 29.1969 28.5615C29.2572 28.2755 29.5609 27.9958 29.7268 27.8075C29.9863 27.4076 29.8823 26.9568 29.796 26.5564C29.7013 26.1264 29.9083 25.7655 30.0305 25.5008C30.4766 24.8789 30.8781 24.2039 31.1495 23.5248C31.3456 22.8992 31.214 23.0495 30.8843 22.944C31.4054 22.5207 31.8489 21.9216 32.1869 21.3616C32.2862 21.2056 32.3429 21.0657 32.3174 20.9248C32.2415 20.5878 32.045 20.7485 32.5249 20.5582C32.7745 20.3206 32.9628 20.4599 33.1385 20.4636C33.2103 20.5483 33.307 20.6196 33.385 20.6913L33.4734 36.3449C33.3278 36.4016 33.23 36.479 33.0163 36.5612C32.4651 36.8285 32.2197 36.8222 31.8307 36.6324C31.3076 36.596 31.0403 36.9611 30.85 37.3282C30.4408 37.6516 30.0326 38.0198 29.68 38.5065C29.4845 38.9724 29.081 38.9756 28.6738 39.0406C28.7133 39.2116 28.497 39.2002 28.4034 39.285C27.8402 39.9422 27.4206 40.1534 26.6141 40.2449C26.444 40.1305 26.3551 40.3608 26.2688 40.4045C26.0858 40.728 25.7779 40.8106 25.4675 40.962C25.1045 41.274 24.934 41.119 24.6641 40.988C24.3386 41.053 24.2772 41.3712 24.1722 41.6255C23.6022 42.0363 23.2278 42.2734 22.8836 42.899C22.8652 42.944 22.842 42.9869 22.8144 43.0269C22.5976 43.2136 22.3246 43.5313 22.0984 43.7601C21.9689 44.2515 21.789 44.46 21.5945 44.7512C21.5358 44.8386 21.4754 44.9384 21.4333 45.0226L21.3876 45.1131L18.5801 46.4173C18.5629 45.5166 18.5322 40.3213 18.501 34.319C18.6737 34.1619 18.8884 33.9342 19.0595 33.7766C19.254 33.6518 19.3596 33.5234 19.4672 33.2852C19.695 32.6503 19.7194 32.0663 19.9872 31.5411C20.1021 31.3342 20.1702 31.2057 20.2108 31.0887C20.2503 30.9712 20.255 30.8662 20.2472 30.7502C20.1344 30.3207 19.8868 30.4205 19.4896 30.3654C19.151 30.459 18.8146 30.4559 18.4828 30.3956C18.4652 26.7582 18.4464 22.9481 18.434 20.0096C18.6388 19.8921 18.7595 20.0288 18.8801 20.0455C19.3601 19.9576 19.3684 19.6232 19.4365 19.2046C19.5145 18.7938 19.6996 18.3102 19.8801 17.9052C20.163 17.7148 20.3949 17.3987 20.5264 17.0378C20.62 16.731 20.8722 16.5636 21.0724 16.393C21.2466 16.2495 21.4604 16.0092 21.6392 15.7789C21.841 15.6052 21.8951 15.3286 21.9601 15.144C22.1774 14.9635 21.9996 14.2995 21.9913 14.1149C21.9388 13.8013 22.1317 13.6344 22.1613 13.3125H22.1634C22.1826 12.5013 22.5274 11.8622 22.4478 11.18C22.2788 11.1207 22.3854 11.0552 22.349 10.9819L26.1638 9.20972C26.1788 9.24092 26.2048 9.26692 26.221 9.28876C26.7862 9.91796 26.7904 9.74064 27.0062 9.0714C27.2755 8.68868 27.7066 8.94452 27.9037 8.40112L33.2997 5.89472ZM2.64416 6.045L9.23776 9.10728C8.9996 9.25444 8.85972 9.5004 8.72036 9.72348C8.95072 9.99388 9.11036 10.154 9.29964 10.4172C9.42756 10.4265 9.3896 10.5331 9.43172 10.5867C9.68964 11.0354 10.0214 11.3459 10.4452 11.4494C10.8347 11.4852 11.0016 11.5617 11.338 11.6834C11.6786 11.4005 11.4041 11.7218 11.6017 11.8362C11.8019 11.9699 12.0307 12.1248 12.2049 12.2564C12.2808 12.3833 12.3063 12.4415 12.3645 12.4982C12.1711 12.3968 11.7598 12.3074 11.5533 12.272C11.5367 12.39 11.4545 12.61 11.3349 12.5559C11.3224 12.4909 11.3661 12.3635 11.3817 12.272C11.4062 12.1025 11.1976 12.0536 11.1144 11.9709C10.9272 11.9231 10.6844 12.0229 10.5825 12.0557C10.1821 11.9356 10.0937 11.6922 9.90128 11.3646C9.75932 11.0776 9.54248 10.9101 9.31992 10.725C9.27402 10.6536 9.21511 10.5915 9.14624 10.542C8.8072 10.2565 8.72712 10.4442 8.49104 10.4894C8.51496 11.0521 8.31476 11.4525 8.52952 11.9246C8.66628 12.3417 8.74272 12.3282 9.0984 12.3396C9.42652 12.4134 9.38232 12.8164 9.4286 13.0234H9.4052C9.32332 12.9351 9.2354 12.8525 9.14208 12.7764C9.01884 12.7213 8.91588 12.6142 8.83944 12.559C8.63716 12.3557 8.5108 12.221 8.35688 12.0484C8.12756 11.9704 7.84104 11.9964 7.57012 12.0208C7.37876 12.0635 7.27112 12.0687 7.21756 12.052C6.644 11.3261 5.62376 10.7437 5.11416 10.2029C4.6758 9.70424 4.42412 9.8306 3.9504 9.84412C3.58848 10.1858 3.51308 10.1722 3.15272 10.3085C3.30352 10.7999 3.29156 10.9725 3.05392 11.3667C3.14908 11.8264 3.33524 11.9938 3.6384 12.2413C3.82664 12.3328 3.55052 12.3146 3.48916 12.3661C3.22188 12.6454 3.16208 12.8253 3.05028 13.117C3.07056 13.3437 3.27648 13.365 3.39036 13.4488C3.87032 13.6677 3.8594 13.9636 4.16672 14.2319C4.07104 14.4019 3.3628 14.5553 3.05392 14.7347C3.07836 15.0155 3.24632 14.8902 3.41272 14.9521C3.51464 14.8257 3.66492 14.9209 3.77984 14.9074C4.32688 15.015 4.68828 14.6292 4.6498 15.1554C4.96024 15.0987 5.12404 14.897 5.29304 14.7144C5.39964 14.1976 6.15104 14.7898 6.30652 14.9172C6.41416 14.9724 6.54468 15.094 6.72252 15.3338C7.11876 15.7123 7.28672 16.08 7.53372 16.4887C7.68556 16.6395 7.47184 16.6962 7.43076 16.835C7.43908 17.1844 7.619 17.3831 7.78748 17.6108C8.16708 17.5999 8.01732 17.7242 8.03812 17.9889C8.18424 18.3061 8.39588 18.6285 8.52276 18.8609C8.53732 18.9795 8.54252 19.1812 8.54616 19.5333C8.48428 20.67 8.97984 21.3871 9.52792 22.3142C9.75152 22.5295 9.68704 22.8249 9.71616 22.9783C9.98604 23.3912 10.1862 23.8716 10.5185 24.2408C10.9605 24.3864 11.0864 25.0895 11.6204 25.65C11.9662 25.9984 12.1316 26.142 12.313 26.1971C12.43 26.2324 12.4722 26.2657 12.5912 26.4326H12.5923C12.6942 26.5762 12.883 26.7769 13.0358 26.9079C13.4206 27.4617 13.7711 27.9453 14.261 28.4102C14.5958 28.7388 14.5407 28.7804 14.2344 29.0956C14.2084 29.1538 14.1518 29.1985 14.1117 29.249C14.1278 29.4913 14.0743 29.7222 14.0311 29.9302C14.0909 30.16 14.2001 30.3649 14.2953 30.549C14.5943 31.305 14.8553 31.8568 15.2968 32.3872C15.5911 33.3887 15.1632 34.6466 14.9791 35.6819C15.0009 36.1327 14.8766 36.5352 14.8408 36.725C14.8175 36.7501 14.7994 36.7796 14.7875 36.8117C14.7756 36.8438 14.7702 36.878 14.7716 36.9122C15.055 37.3126 14.8938 37.7369 15.0628 38.4878C15.2604 38.6807 15.2588 38.871 15.3394 39.0556C15.4918 39.2517 15.7508 39.3437 15.9551 39.4508C16.1621 39.6386 16.2567 39.4436 16.3888 39.43C16.3155 39.1825 16.1356 38.9678 16.0076 38.7228C15.8709 38.5424 15.9946 38.3126 15.9936 38.2351C16.0581 38.1186 16.1896 37.9746 16.3274 37.8056C16.0596 37.3105 16.3139 37.2892 16.5682 37.0115C16.5261 36.7728 16.642 36.8576 16.7195 36.6954C16.7185 36.4915 16.8807 36.6444 16.9644 36.6174L16.9956 42.0774C16.9566 42.0815 16.9171 42.0794 16.8802 42.0867C16.3976 42.2209 16.1428 42.5246 15.8319 42.8251C15.8672 43.3092 15.927 43.4517 15.498 43.1527C15.1164 43.2645 14.9832 43.4486 14.8054 43.6597C14.7316 43.7367 14.8376 43.8147 14.8491 43.8677C14.5943 44.3264 14.1304 44.0965 13.7415 43.8292C13.3161 43.4975 12.9994 43.3555 12.5658 43.1876C12.5502 43.173 12.5346 43.1382 12.4997 43.0269C12.2782 42.6629 12.0614 42.6301 11.5642 42.4809C11.3989 42.4112 11.3401 42.6088 11.2538 42.6582C11.1191 43.0212 11.3126 43.122 11.4264 43.3498C11.4181 43.433 11.3864 43.5001 11.3224 43.5224C11.3141 43.2687 11.1498 43.3098 11.0026 43.2016C10.9059 43.1964 10.8144 43.2068 10.7338 43.2089C10.3069 42.6712 9.6132 42.3535 9.20812 42.0009L8.57996 41.4518L8.38236 41.6255H8.3808C7.79684 41.549 7.1016 41.561 6.78752 41.653L2.64468 39.728L2.64416 6.045ZM33.307 7.0564L33.319 9.13224L33.2966 9.1312C32.9534 9.139 33.033 9.11612 32.8884 9.4718C32.9674 9.67564 32.9258 9.86284 32.944 10.0677C32.955 10.114 32.9986 10.1488 33.0387 10.1826C32.8879 10.1364 32.7095 10.1046 32.5514 10.1202C32.1282 10.191 31.9898 9.958 31.8234 9.75C32.0351 8.62784 32.5546 7.80884 33.307 7.0564ZM10.6277 9.75416C10.934 9.89456 10.9064 9.95956 10.9995 10.2669C11.024 10.5529 11.2938 10.3303 11.3469 10.3423C11.3417 10.2643 11.389 10.1915 11.4098 10.1166C11.7478 10.2856 12.0718 10.5794 12.2621 10.739C12.0473 10.7312 12.1154 10.7578 11.9605 10.778C11.9335 10.7788 11.9072 10.7865 11.884 10.8004C11.6833 10.7349 11.571 10.6413 11.4212 10.5768C11.336 10.3594 11.1607 10.5737 11.0869 10.5726C11.0657 10.614 11.056 10.6604 11.0588 10.7068C11.1404 10.7952 11.1732 10.9195 11.1857 11.049C11.4374 11.1488 11.1924 11.1254 11.1935 11.1384C11.1924 11.1088 11.1883 11.0786 11.1857 11.049L11.1836 11.0479C11.1093 10.9621 11.0651 10.8544 11.0578 10.7411C11.0567 10.7292 11.0588 10.7182 11.0588 10.7068C11.0335 10.6771 11.0028 10.6524 10.9683 10.634C10.9371 10.6179 10.9298 10.6096 10.9257 10.6059C10.9215 10.6236 10.9272 10.6387 10.9194 10.6569C10.9213 10.6375 10.9196 10.6179 10.9142 10.5992L10.9257 10.6059C10.9357 10.5667 10.936 10.5255 10.9266 10.4861C10.9172 10.4467 10.8983 10.4102 10.8716 10.3797V10.3787C10.8742 10.3813 10.8758 10.3423 10.8628 10.3724C10.7785 9.89404 10.5211 10.1379 10.3079 10.2456C10.114 9.8852 10.3339 9.8618 10.6277 9.75416ZM12.8148 10.7697L13.1274 10.9153C13.0665 11.0349 13.1757 11.1665 13.1976 11.2804C13.1903 11.311 13.1107 11.3776 13.0676 11.426C13.0072 11.3412 12.9402 11.259 12.8372 11.2346C12.8029 11.2268 12.7727 11.206 12.7353 11.1212C12.3801 10.8857 12.7545 11.0406 12.7992 10.855C12.8102 10.829 12.8122 10.7994 12.8148 10.7697ZM15.0144 11.7915L15.3316 11.9387C15.5433 12.3074 15.4575 12.3136 15.4096 12.6417C15.692 13.143 15.7201 13.4493 16.1865 13.7873C16.5115 13.755 16.6181 13.8362 16.8355 14.0696L16.874 20.7818C16.7804 20.4542 16.6686 20.1308 16.5256 19.7876C16.0134 19.2754 16.1018 20.2524 15.8636 19.4137C15.8324 19.3513 15.9286 19.2904 15.9608 19.2291C16.0128 19.2696 16.0373 19.2951 16.1002 19.3159C16.4866 18.7845 16.5885 18.5437 16.8516 17.9494C16.8272 17.8173 16.7492 17.6956 16.6181 17.4959C16.5667 17.4184 16.5195 17.3382 16.4767 17.2557C16.5016 17.109 16.3363 17.0851 16.2812 17.018C16.0492 16.7664 16.1907 16.6395 16.1314 16.3088C15.9593 15.8798 15.6442 15.4627 15.4034 15.1143C15.145 14.8762 15.0176 14.4602 14.8855 14.1539C14.7862 13.9745 14.6073 13.8107 14.4154 13.6828C14.1486 13.636 13.9089 13.4228 13.7987 13.3624C13.6406 13.169 13.1242 13.2569 13.1227 13.2569C13.106 13.1529 13.1216 12.9797 13.17 12.9678C13.4491 13.1207 13.7326 13.2653 14.0202 13.4014C14.2542 13.5897 14.2989 13.4066 14.4658 13.3817C14.5178 13.0489 14.5438 12.948 14.3722 12.6214C14.4164 12.6194 14.4513 12.6318 14.5022 12.623C14.5854 12.609 14.6593 12.5887 14.7201 12.5289C14.6473 12.1051 14.8101 12.0682 14.9073 11.8451C14.9475 11.8381 14.9848 11.8195 15.0144 11.7915ZM27.133 15.2272C27.1642 15.209 27.094 15.4882 27.1185 15.8153C27.1154 15.9583 27.2927 15.952 27.3603 16.0051C27.3644 16.029 27.2116 16.3275 27.1694 16.4044C27.1653 16.4564 27.1382 16.5038 27.1226 16.5537C26.8127 16.5136 27.1081 16.4289 27.0873 16.2521C27.0956 16.1091 27.0597 15.9536 26.9427 15.846C26.9063 15.8122 26.8907 15.7659 26.9271 15.6343C27.0597 15.3561 27.1143 15.2381 27.133 15.2272ZM47.6434 15.5594C47.2664 15.6437 47.4292 15.8714 47.3824 16.0014C47.8701 16.3046 47.866 16.0108 48.0194 15.861C47.8686 15.6322 47.7547 15.549 47.6434 15.5594ZM14.2324 15.6598L14.2355 15.6608C14.3 15.6941 14.3606 15.7179 14.4175 15.7321C14.5085 15.6957 14.5048 15.7888 14.5433 15.8132C14.5839 15.9104 14.6099 16.0545 14.6073 16.0732C14.5844 16.4216 14.5324 16.587 14.7841 16.887C14.8678 16.9556 14.9749 16.8823 15.041 16.8808C15.1751 17.0014 14.8688 17.2115 14.8538 17.2312C14.6005 17.0154 14.6016 17.277 14.4549 17.343C14.4674 17.3909 14.3993 17.4252 14.3717 17.4668C14.3458 17.4356 14.323 17.402 14.3036 17.3664C14.248 17.1688 14.1304 17.0492 13.951 16.8007C14.2802 16.6878 14.2719 16.3769 14.3208 16.12C14.3249 15.8886 14.2838 15.7763 14.2324 15.6598ZM22.6122 16.0072C22.4052 16.095 22.2721 16.1829 22.0911 16.3088C21.8899 16.5079 21.8332 16.3805 21.6148 16.4024C21.3751 16.561 21.3444 16.8038 21.2674 17.0316C21.4026 17.2162 21.5056 17.4392 21.6273 17.6467C21.815 17.5635 22.0199 17.5479 22.2149 17.5297C22.2559 17.5139 22.2933 17.4902 22.3251 17.4598C22.3569 17.4295 22.3823 17.3931 22.4 17.3529C22.5768 17.161 22.7619 16.9182 22.9148 16.6998C23.0542 16.3098 22.8701 16.2256 22.6122 16.0072ZM26.9625 17.2962L26.9552 17.3082C26.8777 17.3009 26.7982 17.3243 26.7264 17.3316C26.7472 17.2791 26.7607 17.1881 26.7763 17.1111C26.8782 17.1527 26.9984 17.0258 27.0545 17.004C27.0748 17.0269 27.015 17.1922 26.9625 17.2962ZM13.2371 17.2208C13.2761 17.2047 13.3218 17.2635 13.4695 17.5308C14.0108 17.6852 13.5735 17.6894 13.6801 17.9067C13.8689 18.2172 13.9516 18.097 14.2204 17.9676C14.3015 17.6888 14.3707 17.9962 14.4154 18.005C14.029 17.979 14.3384 18.0591 14.1346 18.2021C14.118 18.5177 14.3156 18.4189 14.4414 18.5208C14.5007 18.4257 14.4627 18.603 14.47 18.6316C14.5215 18.9353 14.4055 18.9311 14.314 19.1334C14.4435 19.396 14.5168 19.6097 14.5912 19.9254C14.4471 19.9644 14.3842 20.1058 14.2948 20.1854L14.2272 20.1479C14.2906 19.955 14.1466 19.865 14.1024 19.7324C13.78 19.5437 13.5631 19.2821 13.4014 19.0746C13.157 18.9202 13.0124 18.654 12.8778 18.4917C12.8528 18.3336 12.7946 18.1943 12.6828 18.1054C12.5476 17.732 12.7821 17.5807 13.0431 17.3644C13.1658 17.3295 13.1981 17.2375 13.2371 17.2208ZM31.096 18.3128C31.0804 18.4517 31.1792 18.5702 31.2124 18.6753C31.265 18.746 31.2384 18.8188 31.2514 18.8937C31.2062 18.9186 31.163 18.9467 31.1214 18.9821C31.1152 18.9857 31.0143 18.9478 30.9727 18.9342C31.0159 18.7808 31.0715 18.7704 31.1235 18.6836C31.1828 18.5396 31.006 18.448 30.9608 18.3576C30.7855 18.2359 30.8048 18.0601 30.7413 17.8974C30.8568 17.693 31.0284 18.2156 31.096 18.3128ZM15.0228 18.0222C15.0888 18.0929 15.1616 18.2172 15.2318 18.3966C15.3415 18.5453 15.0945 18.3071 15.0519 18.279C14.9646 18.232 14.8795 18.1808 14.7971 18.1256C14.7986 18.1236 14.8023 18.1256 14.8044 18.123C14.6692 17.6259 14.8574 18.0981 15.0228 18.0222ZM29.2749 18.719C29.3488 18.7184 29.4574 18.7465 29.6088 18.8178C29.5505 18.9987 29.0544 19.0341 28.8704 19.058C28.6764 19.2202 28.4778 19.4745 28.301 19.4886C28.3582 19.2405 28.4824 19.0133 28.6005 18.772C28.809 19.0174 28.8761 18.8573 29.0945 18.8001C29.1569 18.7398 29.2016 18.7195 29.2749 18.719ZM45.7615 19.8047C45.7344 19.8097 45.7088 19.8209 45.6867 19.8375C45.6647 19.8541 45.6469 19.8757 45.6346 19.9004C45.6024 20.1464 45.7948 20.2457 45.8988 20.3757C46.1656 20.4823 46.0168 20.1292 46.0579 20.0429C46.0995 19.877 45.8406 19.865 45.7615 19.8047ZM27.9718 20.6939C28.1559 20.786 28.3457 20.6851 28.5038 20.6476C29.0518 20.3356 28.977 20.5613 28.7742 21.008C28.2698 21.23 27.6057 21.3996 27.1226 21.5628C26.9552 22.1281 26.6593 21.9612 26.1783 21.9476C26.1383 21.9658 26.1097 21.9617 26.0743 21.9638C26.0811 21.9419 26.0977 21.9216 26.1019 21.8988C26.1138 21.8369 26.1185 21.7714 26.1175 21.7079C26.1471 21.3767 25.9386 21.4989 25.8211 21.4011C25.95 21.2394 25.9287 21.0449 25.9459 20.8629C26.4524 20.5696 26.2178 20.9825 26.2381 21.0064C25.8726 21.2898 26.0613 21.2909 26.2605 21.515C26.3666 21.5254 26.4654 21.514 26.5491 21.4651C26.6775 21.2971 26.6973 21.2316 26.7904 21.0449C27.0535 20.3315 27.1793 21.1115 27.7191 20.7574C27.6593 20.151 27.8792 20.7168 27.9718 20.6939ZM25.4904 21.3782C25.5153 21.4375 25.5866 21.4682 25.6448 21.4739C25.6276 21.4822 25.6136 21.4874 25.5954 21.4973C25.2813 21.6585 25.0031 21.8447 24.7208 22.0303C24.6745 22.0631 24.6537 22.0865 24.6152 22.1156C24.5923 21.684 24.8461 21.8405 24.922 21.7636C25.2278 21.6575 25.0915 21.5233 25.1383 21.3429C24.9995 20.8686 25.1914 21.0454 25.4264 20.8291C25.5382 20.6866 25.4784 21.2274 25.4904 21.3782ZM4.20156 20.8187C3.90412 21.0127 4.14904 21.1292 4.21612 21.1968C4.36224 21.3834 4.473 21.5847 4.57804 21.7875C4.8214 22.0589 4.85052 21.7578 4.97896 21.7256C4.98416 21.6466 4.9228 21.592 4.8968 21.5306C4.77772 21.3101 4.57804 21.1344 4.42256 20.9773C4.3456 20.918 4.2702 20.8681 4.20156 20.8187ZM46.6414 20.8187C46.4074 20.7844 46.553 21.0595 46.5327 21.1136C46.58 21.2072 46.6954 21.1936 46.7636 21.2269C47.1712 21.2134 46.7859 20.9222 46.788 20.8562C46.7433 20.831 46.6927 20.8181 46.6414 20.8187ZM47.0761 21.4698C47.0574 21.5218 47.0672 21.605 47.112 21.6518C47.5243 21.7589 47.3236 21.5816 47.4245 21.3876C47.2924 21.2072 47.1452 21.4536 47.0761 21.4698ZM47.8145 21.6819C47.6569 22.0407 47.8904 22.0256 48.0667 22.138C48.2679 22.0891 48.4473 22.2056 48.6699 22.2711C48.881 22.1723 48.6298 21.9669 48.6231 21.9138C48.4031 21.8176 48.2367 21.7901 48.0786 21.7604C48.0006 21.6876 47.8914 21.7043 47.8145 21.6819ZM13.9068 21.8956C13.9417 21.9055 13.9651 21.9534 13.9869 21.9752C14.0552 22.0616 14.0937 22.1678 14.0966 22.2778C14.0966 22.3735 14.0904 22.4494 14.0826 22.4453C14.0748 22.4411 14.0254 22.3038 13.9729 22.1406C13.9209 21.9788 13.898 21.906 13.9068 21.8962M14.2043 22.0672C14.2449 22.0945 14.277 22.1328 14.2968 22.1775C14.3166 22.2222 14.3072 22.2446 14.276 22.2284C14.2355 22.2016 14.2032 22.164 14.183 22.1198C14.1637 22.075 14.1726 22.0511 14.2043 22.0672ZM29.4819 22.58C29.4881 22.5519 29.5713 22.6528 29.59 22.6512C29.7117 22.75 29.7497 22.9096 29.8188 23.036C29.7965 23.0339 29.7762 23.024 29.7528 23.0266C29.7424 22.9512 29.577 22.7937 29.5152 22.7131C29.5063 22.6673 29.4933 22.6252 29.4819 22.58ZM16.8428 22.6008L16.8833 22.6044L16.8854 22.9315C16.7471 23.0922 16.6561 22.8873 16.5162 22.8176C16.4976 22.7691 16.4931 22.7162 16.5032 22.6652C16.523 22.6782 16.5375 22.7027 16.5573 22.7131C16.6862 22.8753 16.7913 22.6434 16.8464 22.6268C16.8469 22.6148 16.8438 22.6096 16.8428 22.6008ZM15.8277 23.348C15.886 23.3568 15.94 23.3558 15.9905 23.3501C16.0721 23.687 16.2047 23.6007 16.4647 23.6142C16.6082 23.6288 16.7616 23.5971 16.889 23.5888L16.9208 29.1262C16.913 29.1143 16.9098 29.1122 16.9015 29.1002C16.7554 28.8787 16.64 28.782 16.3519 28.6385C16.1361 28.5412 15.9499 28.3691 15.7773 28.2329C15.535 28.0186 15.2677 27.9271 14.7877 28.0145C14.6686 27.9843 14.4341 27.8507 14.2974 27.7924C14.248 27.7924 14.197 27.7607 14.144 27.6557C14.0909 27.5506 14.0535 27.3837 14.0535 27.1835C14.0535 26.9942 14.0467 26.857 13.9672 26.7363C13.4461 26.3879 13.5158 26.5502 13.5844 26.0608C13.5922 25.9178 13.6874 26.0577 13.7701 26.0551C14.0509 26.1971 14.2823 26.4212 14.5137 26.637C14.4883 26.6443 14.4649 26.6572 14.4452 26.6748C14.4255 26.6923 14.41 26.7141 14.3998 26.7384C14.3478 26.9365 14.549 26.9948 14.6442 27.0977C14.7534 27.1248 14.8335 27.169 14.9229 27.2028C15.0878 27.2438 15.2037 27.3759 15.2885 27.429C15.7034 27.4768 15.7305 27.6219 16.0212 27.7888C16.394 27.6796 16.2874 27.7212 16.1356 27.3894C15.9494 27.3853 15.9551 27.2402 15.836 27.1388C15.7409 26.976 15.5703 26.935 15.4492 26.8523C15.2869 26.8694 15.3311 26.6027 15.3181 26.4711C15.3519 26.2782 15.1028 26.2808 15.0368 26.2226H15.0358C15.0133 26.2247 14.9915 26.2313 14.9716 26.242C14.9517 26.2526 14.9341 26.267 14.9198 26.2844C14.8678 26.3947 14.7664 26.1622 14.6978 26.1076C14.9172 25.8794 14.7971 25.715 14.7695 25.494C14.7144 25.3422 14.5594 25.4036 14.4742 25.3661C14.4305 25.1488 14.3889 24.947 14.3431 24.7172C14.8132 24.4962 14.9838 24.2856 15.1491 23.8935C15.3904 23.5212 15.1715 23.8014 15.574 23.7292C15.9634 23.7437 15.704 23.5659 15.7253 23.3808C15.7149 23.3714 15.7201 23.374 15.7201 23.3787C15.7201 23.3839 15.718 23.3828 15.7232 23.3766C15.7336 23.3641 15.7721 23.3397 15.8277 23.348ZM12.5413 24.2648C12.5875 24.2812 12.6305 24.3057 12.6682 24.337C13.041 24.6121 13.3832 24.5835 13.7592 24.8477C13.8205 24.9959 13.8741 25.2127 13.9266 25.3781L13.8642 25.6209C13.5652 25.7904 13.3463 25.544 13.0078 25.4696C12.9027 25.506 12.8601 25.5897 12.8341 25.6849C12.2402 25.2585 12.1648 24.6428 12.5413 24.2653M40.145 25.1623C40.2178 25.2881 40.0436 25.3354 39.9978 25.414C39.9146 25.2982 39.8309 25.1824 39.7467 25.0666C40.1752 24.7291 39.9287 25.0994 40.145 25.1623ZM30.7424 26.377C30.6347 26.5127 30.5458 26.6531 30.4668 26.7649C30.3596 26.6048 30.1797 26.6401 30.0378 26.6011C29.8594 26.7868 30.0237 26.8871 30.0242 27.0015C30.162 27.0421 30.3009 26.9573 30.4064 26.9407C30.2546 27.0832 30.1438 27.2756 30.0404 27.431C30.0315 27.6978 29.9936 27.8034 29.9717 28.0374C29.8365 28.9838 30.2764 29.0462 30.7361 28.4336C30.7808 28.3156 30.8209 28.1596 30.8744 27.9204C30.9467 27.5985 31.033 27.2464 31.0564 27.1721C31.1916 26.6152 31.0486 26.5819 30.7424 26.377ZM39.5111 27.1461C39.6047 27.8325 41.2063 28.4726 40.8891 27.6557C40.8423 27.6292 40.79 27.614 40.7362 27.6115C40.2807 27.5501 39.6359 27.0478 39.5111 27.1461ZM31.6425 27.2334C31.6145 27.2333 31.5867 27.2387 31.5608 27.2496C31.2327 27.5683 31.6284 27.5023 31.6716 27.6125C32.0049 27.4758 31.6466 27.2886 31.6425 27.2334ZM45.7714 27.6104C45.7465 27.6404 45.7329 27.6781 45.7329 27.717C45.7927 27.8075 45.7912 27.9022 45.8052 27.9464C45.775 28.2324 46.0044 28.2246 46.1276 28.3093C46.1622 28.2942 46.19 28.267 46.2061 28.2329C46.23 28.0082 46.0751 27.7581 46.0111 27.585C45.9191 27.4841 45.8437 27.6026 45.7714 27.6104ZM46.3938 28.1882C46.3096 28.2329 46.3086 28.3031 46.3086 28.352C46.2451 28.5943 46.5363 28.5516 46.5946 28.5995C46.7391 28.5511 46.6388 28.405 46.6549 28.3343C46.6549 28.146 46.4614 28.2256 46.3938 28.1882ZM45.4064 32.0226C45.4927 32.2608 45.6492 32.423 45.8036 32.6108C46.0382 32.8775 46.034 32.4397 46.0798 32.4054C45.9737 32.202 45.825 32.032 45.6877 31.8531C45.5176 31.6108 45.4906 31.9717 45.4064 32.0226ZM46.5514 34.7698C46.5478 34.9227 46.6252 35.074 46.6642 35.1998C46.827 35.8041 46.6055 35.6944 46.1557 36.0474C45.8187 36.1234 45.8406 36.3126 45.7371 36.5149C45.9149 36.6012 45.8135 36.7167 45.851 36.8165C46.0314 37.089 46.2254 36.9736 46.5129 36.9112C46.5015 36.6532 46.7261 36.7146 46.8036 36.6428C46.833 36.6371 46.86 36.623 46.8816 36.6023C46.8192 36.3969 47.0688 36.3943 47.1135 36.3444C47.4385 36.1088 47.4988 36.0022 47.556 35.6372C47.5254 35.5675 47.4843 35.5451 47.4416 35.5196C47.2352 35.4468 47.1692 35.2492 47.0735 35.0615C46.8104 34.4074 46.774 34.8067 46.5514 34.7698Z" fill="white"/>
</g>
<defs>
<clipPath id="clip0_418_2179">
<rect width="52" height="52" fill="white"/>
</clipPath>
</defs>
</svg>
